<?xml version="1.0" standalone="no"?><!DOCTYPE svg PUBLIC "-//W3C//DTD SVG 1.1//EN" "http://www.w3.org/Graphics/SVG/1.1/DTD/svg11.dtd"><svg t="1609671176989" class="icon" viewBox="0 0 1024 1024" version="1.1" xmlns="http://www.w3.org/2000/svg" p-id="2738" xmlns:xlink="http://www.w3.org/1999/xlink" width="200" height="200"><defs><style type="text/css"></style></defs><path d="M872.12 276.31l-336.06-194a48.1 48.1 0 0 0-48.11 0l-336.06 194A48.11 48.11 0 0 0 127.83 318v388a48.11 48.11 0 0 0 24.06 41.67l336.06 194a48.1 48.1 0 0 0 48.11 0l336.06-194A48.11 48.11 0 0 0 896.17 706V318a48.11 48.11 0 0 0-24.05-41.69z m-58.89 387.82a37.72 37.72 0 0 1-18.86 32.68L530.86 848.94a37.73 37.73 0 0 1-37.73 0L229.64 696.81a37.72 37.72 0 0 1-18.86-32.68V359.87a37.71 37.71 0 0 1 18.86-32.67l263.5-152.13a37.73 37.73 0 0 1 37.73 0L794.36 327.2a37.71 37.71 0 0 1 18.86 32.67z" fill="#C5E3FF" p-id="2739"></path><path d="M512 960.64a60.59 60.59 0 0 1-30.31-8.1l-336.06-194a60.78 60.78 0 0 1-30.3-52.54V318a60.79 60.79 0 0 1 30.3-52.49l336.06-194a60.78 60.78 0 0 1 60.61 0l336.06 194A60.79 60.79 0 0 1 908.67 318v388a60.79 60.79 0 0 1-30.3 52.49l-336.06 194a60.6 60.6 0 0 1-30.31 8.15z m0-872.29a35.6 35.6 0 0 0-17.81 4.76l-336.06 194a35.71 35.71 0 0 0-17.8 30.89v388a35.71 35.71 0 0 0 17.81 30.84l336.06 194a35.7 35.7 0 0 0 35.61 0l336.06-194a35.71 35.71 0 0 0 17.8-30.84V318a35.71 35.71 0 0 0-17.81-30.84l-336.06-194a35.6 35.6 0 0 0-17.8-4.81z m0 778.12a50.21 50.21 0 0 1-25.11-6.71l-263.5-152.13a50.36 50.36 0 0 1-25.11-43.5V359.87a50.35 50.35 0 0 1 25.12-43.49l263.5-152.13a50.36 50.36 0 0 1 50.23 0l263.5 152.13a50.35 50.35 0 0 1 25.11 43.49v304.26a50.36 50.36 0 0 1-25.12 43.5L537.11 859.77a50.21 50.21 0 0 1-25.11 6.71z m0-684a25.21 25.21 0 0 0-12.61 3.37L235.89 338a25.28 25.28 0 0 0-12.61 21.84v304.29a25.29 25.29 0 0 0 12.6 21.87l263.5 152.14a25.29 25.29 0 0 0 25.22 0L788.11 686a25.29 25.29 0 0 0 12.61-21.85V359.87a25.28 25.28 0 0 0-12.6-21.87L524.61 185.89a25.22 25.22 0 0 0-12.61-3.37z" fill="#3D9FF9" p-id="2740"></path><path d="M646.86 708a12.5 12.5 0 0 1-12.5-12.5V437.84a12.5 12.5 0 0 1 25 0v257.68a12.5 12.5 0 0 1-12.5 12.48zM489.68 708a12.5 12.5 0 0 1-12.5-12.5V487.2a12.5 12.5 0 0 1 25 0v208.32a12.5 12.5 0 0 1-12.5 12.48zM322 708a12.5 12.5 0 0 1-12.5-12.5V531a12.5 12.5 0 0 1 25 0v164.5A12.5 12.5 0 0 1 322 708zM298.81 450.34h-0.54a12.5 12.5 0 0 1 0.1-25h0.1c0.48 0 48.87 0.14 112.73-16.14A501.44 501.44 0 0 0 515.93 370c40-20.52 75.41-46.24 105.17-76.47a12.5 12.5 0 1 1 17.81 17.54c-31.75 32.24-69.43 59.62-112 81.39a526.92 526.92 0 0 1-110.29 41.15c-63.9 16.21-111.91 16.73-117.81 16.73z" fill="#3D9FF9" p-id="2741"></path><path d="M630 410a12.51 12.51 0 0 1-12.36-14.44l14.9-94.83-96.17-25a12.5 12.5 0 1 1 6.28-24.2L648.39 279a13.85 13.85 0 0 1 10.36 16.12l-16.39 104.31A12.5 12.5 0 0 1 630 410z m13-106.6z m-8.56-14z" fill="#3D9FF9" p-id="2742"></path></svg>